<?xml version="1.0" encoding="UTF-8"?>
<svg width="512" height="512" viewBox="0 0 512 512" fill="none" xmlns="http://www.w3.org/2000/svg">
  <rect width="512" height="512" rx="100" fill="#030007"/>
  <path d="M256 128C203.07 128 160 171.07 160 224C160 276.93 203.07 320 256 320C308.93 320 352 276.93 352 224C352 171.07 308.93 128 256 128ZM256 288C220.71 288 192 259.29 192 224C192 188.71 220.71 160 256 160C291.29 160 320 188.71 320 224C320 259.29 291.29 288 256 288Z" fill="url(#paint0_linear)"/>
  <path d="M256 352C176.71 352 112 416.71 112 496C112 504.84 119.16 512 128 512H384C392.84 512 400 504.84 400 496C400 416.71 335.29 352 256 352ZM158.42 480C169.29 426.89 208.37 384 256 384C303.63 384 342.71 426.89 353.58 480H158.42Z" fill="url(#paint0_linear)"/>
  <defs>
    <linearGradient id="paint0_linear" x1="112" y1="128" x2="400" y2="512" gradientUnits="userSpaceOnUse">
      <stop stop-color="#cc73f8"/>
      <stop offset="1" stop-color="#b44fe0"/>
    </linearGradient>
  </defs>
</svg>